<svg width="64" height="64" viewBox="0 0 64 64" fill="none" xmlns="http://www.w3.org/2000/svg">
<circle cx="32" cy="32" r="31" fill="#0B0B0B" stroke="#FF447C" stroke-width="2"/>
<path d="M45.4843 30.1341C45.2909 30.3272 45.0288 30.4357 44.7555 30.4357C44.4822 30.4357 44.2201 30.3272 44.0268 30.1341L33.4118 19.5208L33.4118 47.2803C33.4118 47.5538 33.3031 47.8162 33.1097 48.0095C32.9163 48.2029 32.654 48.3116 32.3805 48.3116C32.107 48.3116 31.8447 48.2029 31.6513 48.0095C31.4579 47.8162 31.3493 47.5538 31.3493 47.2803L31.3493 19.5208L20.7343 30.1341C20.5388 30.3163 20.2802 30.4154 20.0131 30.4107C19.7459 30.406 19.491 30.2978 19.302 30.1088C19.1131 29.9199 19.0049 29.665 19.0002 29.3978C18.9954 29.1306 19.0946 28.8721 19.2768 28.6766L31.6518 16.3016C31.8451 16.1085 32.1072 16 32.3805 16C32.6538 16 32.9159 16.1085 33.1093 16.3016L45.4843 28.6766C45.6774 28.87 45.7859 29.1321 45.7859 29.4053C45.7859 29.6786 45.6774 29.9407 45.4843 30.1341Z" fill="#FF447C"/>
</svg>
