<svg width="44" height="44" viewBox="0 0 44 44" fill="none" xmlns="http://www.w3.org/2000/svg">
<path d="M24.0212 35.1037C23.8281 34.9103 23.7196 34.6482 23.7196 34.3749C23.7196 34.1016 23.8281 33.8395 24.0212 33.6462L34.6345 23.0312L6.87493 23.0312C6.60143 23.0312 6.33912 22.9225 6.14572 22.7291C5.95233 22.5357 5.84368 22.2734 5.84368 21.9999C5.84368 21.7264 5.95233 21.4641 6.14572 21.2707C6.33912 21.0773 6.60143 20.9687 6.87493 20.9687L34.6345 20.9687L24.0212 10.3537C23.839 10.1582 23.7399 9.89961 23.7446 9.63244C23.7493 9.36528 23.8575 9.11037 24.0465 8.92143C24.2354 8.73249 24.4903 8.62426 24.7575 8.61954C25.0246 8.61483 25.2832 8.714 25.4787 8.89616L37.8537 21.2712C38.0468 21.4645 38.1553 21.7266 38.1553 21.9999C38.1553 22.2732 38.0468 22.5353 37.8537 22.7287L25.4787 35.1037C25.2853 35.2968 25.0232 35.4053 24.7499 35.4053C24.4766 35.4053 24.2145 35.2968 24.0212 35.1037Z" fill="#FF447C"/>
</svg>
