<svg width="44" height="44" viewBox="0 0 44 44" fill="none" xmlns="http://www.w3.org/2000/svg">
<path d="M22.0336 1C10.4624 1 1.07129 10.4618 1.07129 22.12C1.07129 33.7782 10.4624 43.24 22.0336 43.24C33.6047 43.24 42.9958 33.7782 42.9958 22.12C42.9958 10.4618 33.6047 1 22.0336 1ZM31.76 15.3616C31.4456 18.6986 30.0831 26.8086 29.3913 30.5469C29.0978 32.1309 28.5109 32.6589 27.9659 32.7222C26.7501 32.8278 25.8277 31.9197 24.6538 31.1382C22.8092 29.9133 21.761 29.153 19.9793 27.9702C17.904 26.5974 19.2456 25.8371 20.4404 24.6122C20.7549 24.2954 26.1212 19.3744 26.226 18.9309C26.2406 18.8637 26.2386 18.794 26.2204 18.7277C26.2021 18.6615 26.1681 18.6007 26.1212 18.5507C25.9954 18.4451 25.8277 18.4874 25.681 18.5085C25.4923 18.5507 22.5576 20.5149 16.8349 24.401C15.9964 24.9712 15.2418 25.2669 14.571 25.2458C13.8163 25.2246 12.3909 24.8234 11.3218 24.4643C10.0012 24.0419 8.97406 23.8096 9.05791 23.0704C9.09984 22.6902 9.6239 22.3101 10.6091 21.9088C16.7301 19.2266 20.7968 17.4525 22.8301 16.6077C28.6576 14.1578 29.8525 13.7354 30.6491 13.7354C30.8167 13.7354 31.215 13.7776 31.4666 13.9888C31.6762 14.1578 31.7391 14.3901 31.76 14.559C31.7391 14.6858 31.781 15.0659 31.76 15.3616Z" fill="white"/>
</svg>
