<svg width="45" height="44" viewBox="0 0 45 44" fill="none" xmlns="http://www.w3.org/2000/svg">
<path d="M22.3711 0.878906C10.8658 0.878906 1.53906 10.3345 1.53906 21.9989C1.53906 33.6633 10.8658 43.1189 22.3711 43.1189C33.8765 43.1189 43.2032 33.6633 43.2032 21.9989C43.2032 10.3345 33.8765 0.878906 22.3711 0.878906ZM30.3828 24.7071C30.3828 24.7071 32.2251 26.5507 32.6787 27.4065C32.6917 27.4241 32.6982 27.4417 32.7025 27.4505C32.887 27.7651 32.9304 28.0093 32.8392 28.1919C32.6873 28.4955 32.1665 28.6451 31.9886 28.6583H28.7336C28.5079 28.6583 28.0349 28.5989 27.462 28.1985C27.0215 27.8861 26.5875 27.3735 26.1643 26.8741C25.5328 26.1305 24.986 25.4881 24.4348 25.4881C24.3648 25.488 24.2952 25.4991 24.2287 25.5211C23.812 25.6575 23.2782 26.2603 23.2782 27.8663C23.2782 28.3679 22.8876 28.6561 22.612 28.6561H21.1212C20.6134 28.6561 17.9682 28.4757 15.6246 25.9699C12.7558 22.9009 10.1735 16.7453 10.1518 16.6881C9.98907 16.2899 10.3254 16.0765 10.6922 16.0765H13.9797C14.4181 16.0765 14.5613 16.3471 14.6611 16.5869C14.7783 16.8663 15.2079 17.9773 15.9132 19.2269C17.0568 21.2641 17.7577 22.0913 18.3197 22.0913C18.4251 22.0901 18.5286 22.0629 18.6214 22.0121C19.3548 21.5985 19.2181 18.9475 19.1856 18.3975C19.1856 18.2941 19.1834 17.2117 18.808 16.6925C18.5389 16.3163 18.081 16.1733 17.8033 16.1205C17.9157 15.9632 18.0638 15.8357 18.2351 15.7487C18.7385 15.4935 19.6456 15.4561 20.5462 15.4561H21.0474C22.0239 15.4693 22.2757 15.5331 22.6294 15.6233C23.3455 15.7971 23.3607 16.2657 23.2977 17.8695C23.2782 18.3249 23.2587 18.8397 23.2587 19.4469C23.2587 19.5789 23.2522 19.7197 23.2522 19.8693C23.2305 20.6855 23.2044 21.6117 23.773 21.9923C23.8471 22.0395 23.9328 22.0646 24.0203 22.0649C24.2178 22.0649 24.8124 22.0649 26.4225 19.2643C26.9191 18.3629 27.3506 17.4262 27.7137 16.4615C27.7462 16.4043 27.8417 16.2283 27.9546 16.1601C28.0378 16.1171 28.1302 16.0952 28.2236 16.0963H32.0884C32.5094 16.0963 32.798 16.1601 32.8523 16.3251C32.9477 16.5869 32.8349 17.3855 31.0707 19.8077L30.283 20.8615C28.6837 22.9867 28.6837 23.0945 30.3828 24.7071Z" fill="white"/>
</svg>
