<svg width="44" height="44" viewBox="0 0 44 44" fill="none" xmlns="http://www.w3.org/2000/svg">
<path d="M22.5917 1C34.2563 1 43.7117 10.4554 43.7117 22.12C43.7117 33.7846 34.2563 43.24 22.5917 43.24C18.8593 43.246 15.1926 42.2583 11.9683 40.3782L1.48016 43.24L4.33558 32.7476C2.45399 29.5223 1.46547 25.854 1.47171 22.12C1.47171 10.4554 10.9271 1 22.5917 1ZM15.394 12.1936L14.9716 12.2105C14.6981 12.2271 14.4309 12.299 14.1859 12.4217C13.9568 12.5514 13.7477 12.7136 13.565 12.9032C13.3116 13.1419 13.168 13.3489 13.0138 13.5495C12.2326 14.5652 11.812 15.8121 11.8184 17.0934C11.8226 18.1283 12.0929 19.1357 12.5153 20.0777C13.3792 21.9827 14.8005 23.9997 16.676 25.8688C17.128 26.3186 17.5715 26.7706 18.0488 27.1909C20.3791 29.2426 23.1561 30.7222 26.1589 31.512L27.3585 31.6958C27.7492 31.7169 28.1399 31.6873 28.5327 31.6683C29.1478 31.6366 29.7484 31.47 30.292 31.1805C30.5686 31.038 30.8385 30.883 31.1009 30.7158C31.1009 30.7158 31.1918 30.6567 31.3649 30.5257C31.6501 30.3145 31.8254 30.1646 32.0619 29.9175C32.2372 29.7359 32.3893 29.5225 32.5054 29.2797C32.6702 28.9354 32.8349 28.2786 32.9025 27.7316C32.9532 27.3134 32.9384 27.0853 32.932 26.9438C32.9236 26.7178 32.7356 26.4834 32.5308 26.3841L31.3016 25.8329C31.3016 25.8329 29.4641 25.0324 28.3406 24.5213C28.223 24.47 28.097 24.4406 27.9688 24.4347C27.8243 24.4199 27.6783 24.4362 27.5406 24.4824C27.4029 24.5287 27.2767 24.6039 27.1705 24.703C27.1599 24.6987 27.0184 24.8191 25.4915 26.6692C25.4038 26.787 25.2831 26.876 25.1447 26.9249C25.0063 26.9738 24.8564 26.9804 24.7143 26.9438C24.5767 26.9069 24.4419 26.8603 24.3109 26.8044C24.049 26.6946 23.9582 26.6523 23.7786 26.5763C22.5665 26.0473 21.4442 25.3327 20.4522 24.458C20.1861 24.2256 19.939 23.9722 19.6856 23.7272C18.8547 22.9315 18.1306 22.0313 17.5313 21.0492L17.4067 20.8486C17.3172 20.7137 17.2449 20.5683 17.1913 20.4156C17.1111 20.1051 17.3201 19.8559 17.3201 19.8559C17.3201 19.8559 17.8334 19.2941 18.072 18.99C18.3043 18.6943 18.5008 18.4071 18.6275 18.2022C18.8767 17.8009 18.9548 17.3891 18.8239 17.0702C18.2325 15.6256 17.6201 14.1873 16.9907 12.7596C16.8661 12.4766 16.4965 12.2738 16.1607 12.2337C16.0466 12.221 15.9326 12.2084 15.8185 12.1999C15.5349 12.1858 15.2507 12.1887 14.9674 12.2084L15.394 12.1936Z" fill="white"/>
</svg>
